<svg id="Layer_1" data-name="Layer 1" xmlns="http://www.w3.org/2000/svg" viewBox="0 0 400 300" width="406" height="306" class="illustration styles_illustrationTablet__1DWOa"><path d="M242.68,80.64V74.85h-66v5.79a7.84,7.84,0,0,1-7.84,7.84h0a7.09,7.09,0,0,0-7.09,7.09v79.16a16.5,16.5,0,0,0,16.5,16.5h63.83a16.51,16.51,0,0,0,16.51-16.5V95.57a7.09,7.09,0,0,0-7.1-7.09h-1A7.83,7.83,0,0,1,242.68,80.64Z" fill="#68e1fd" opacity="0.36"></path><circle cx="207.6" cy="47.49" r="16.53" fill="#ffd200"></circle><text transform="translate(201.32 54.2)" font-size="20.68" fill="#fff" font-family="Panton-Bold, Panton" font-weight="700">$</text><rect x="167.28" y="53.66" width="84.97" height="21.19" fill="#24285b"></rect><path d="M192.26,53.66a15.83,15.83,0,0,1-1.19-6.17l32.77,3.09a15.24,15.24,0,0,1-.91,3.08Z" opacity="0.09"></path><path d="M248.29,170.77V165H239.2a37.45,37.45,0,0,0-16,0h-9.21v6.64c0,4.14,7.71,7.5,17.23,7.5s17.24-3.36,17.24-7.5A3.06,3.06,0,0,0,248.29,170.77Z" fill="#ffd200"></path><path d="M248.29,170.77V165H239.2a37.45,37.45,0,0,0-16,0h-9.21v6.64c0,4.14,7.71,7.5,17.23,7.5s17.24-3.36,17.24-7.5A3.06,3.06,0,0,0,248.29,170.77Z" opacity="0.09"></path><ellipse cx="231.17" cy="164.98" rx="17.24" ry="7.5" fill="#ffd200"></ellipse><path d="M208.77,170.77V165h-9.09a37.49,37.49,0,0,0-16.06,0h-9.21v6.64c0,4.14,7.72,7.5,17.24,7.5s17.24-3.36,17.24-7.5A3.49,3.49,0,0,0,208.77,170.77Z" fill="#ffd200"></path><path d="M208.77,170.77V165h-9.09a37.49,37.49,0,0,0-16.06,0h-9.21v6.64c0,4.14,7.72,7.5,17.24,7.5s17.24-3.36,17.24-7.5A3.49,3.49,0,0,0,208.77,170.77Z" opacity="0.09"></path><ellipse cx="191.65" cy="164.98" rx="17.24" ry="7.5" fill="#ffd200"></ellipse><path d="M245.12,161.68v-5.79H236a37.92,37.92,0,0,0-16.06,0h-9.21v6.64c0,4.14,7.72,7.5,17.24,7.5s17.24-3.36,17.24-7.5A3.49,3.49,0,0,0,245.12,161.68Z" fill="#ffd200"></path><path d="M245.12,161.68v-5.79H236a37.92,37.92,0,0,0-16.06,0h-9.21v6.64c0,4.14,7.72,7.5,17.24,7.5s17.24-3.36,17.24-7.5A3.49,3.49,0,0,0,245.12,161.68Z" opacity="0.09"></path><ellipse cx="228" cy="155.89" rx="17.24" ry="7.5" fill="#ffd200"></ellipse><path d="M246.56,152.3v-5.78h-9.09a37.45,37.45,0,0,0-16.05,0h-9.21v6.63c0,4.14,7.71,7.5,17.23,7.5s17.24-3.36,17.24-7.5A3.06,3.06,0,0,0,246.56,152.3Z" fill="#ffd200"></path><path d="M246.56,152.3v-5.78h-9.09a37.45,37.45,0,0,0-16.05,0h-9.21v6.63c0,4.14,7.71,7.5,17.23,7.5s17.24-3.36,17.24-7.5A3.06,3.06,0,0,0,246.56,152.3Z" opacity="0.09"></path><ellipse cx="229.44" cy="146.52" rx="17.24" ry="7.5" fill="#ffd200"></ellipse><path d="M246.56,144.8V139h-9.09a37.45,37.45,0,0,0-16.05,0h-9.21v6.63c0,4.14,7.71,7.5,17.23,7.5s17.24-3.36,17.24-7.5A3.06,3.06,0,0,0,246.56,144.8Z" fill="#ffd200"></path><path d="M246.56,144.8V139h-9.09a37.45,37.45,0,0,0-16.05,0h-9.21v6.63c0,4.14,7.71,7.5,17.23,7.5s17.24-3.36,17.24-7.5A3.06,3.06,0,0,0,246.56,144.8Z" opacity="0.09"></path><ellipse cx="229.44" cy="139.02" rx="17.24" ry="7.5" fill="#ffd200"></ellipse><path d="M237.85,88.15l-3.21-4.81-7.56,5a37.86,37.86,0,0,0-13.36,8.91l-7.66,5.11,3.68,5.52c2.3,3.45,10.58,2,18.5-3.32s12.48-12.36,10.18-15.81A3.15,3.15,0,0,0,237.85,88.15Z" fill="#ffd200"></path><path d="M237.85,88.15l-3.21-4.81-7.56,5a37.86,37.86,0,0,0-13.36,8.91l-7.66,5.11,3.68,5.52c2.3,3.45,10.58,2,18.5-3.32s12.48-12.36,10.18-15.81A3.15,3.15,0,0,0,237.85,88.15Z" opacity="0.09"></path><ellipse cx="220.4" cy="92.84" rx="17.24" ry="7.5" transform="translate(-14.47 137.91) rotate(-33.71)" fill="#ffd200"></ellipse><path d="M217.46,150.69s15.1,2.89,14.82,14.29,2.15,14,2.15,14a35.66,35.66,0,0,1-14-1.49C213.24,175.15,217.46,150.69,217.46,150.69Z" opacity="0.09"></path><circle cx="213.42" cy="165.39" r="15.24" fill="#ffd200"></circle><g opacity="0.09"><circle cx="213.42" cy="165.39" r="15.24"></circle></g><circle cx="209.16" cy="165.39" r="15.24" fill="#ffd200"></circle><circle cx="187.8" cy="127.48" r="15.24" fill="#ffd200"></circle><g opacity="0.09"><circle cx="187.8" cy="127.48" r="15.24"></circle></g><circle cx="187.8" cy="123.22" r="15.24" fill="#ffd200"></circle><path d="M205.27,167.3s19.35,2.85,4.89,22.81S193.25,182.31,205.27,167.3Z" opacity="0.09"></path><path d="M167,195s18.76-36.55,36.37-29.45c4.15,1.68,2.56,9.05.49,15a4.75,4.75,0,0,0,5.29,6.25c13.57-2.34,39.12-6.3,45.15-3.92,8.31,3.28,3.09,12.75-22.29,20.6-19.72,6.1-24.6,11.55-39.2,21.29C170.46,239.57,157.11,211.32,167,195Z" fill="#f4a28c"></path><polygon points="164.62 193.03 185.14 231.18 154.04 264.36 122.94 224.42 164.62 193.03" fill="#68e1fd"></polygon><polygon points="142.87 248.97 180.56 222.06 185.14 231.18 154.04 264.36 142.87 248.97" opacity="0.09"></polygon></svg>