<?xml version="1.0" encoding="iso-8859-1"?>
<!-- Generator: Adobe Illustrator 19.0.0, SVG Export Plug-In . SVG Version: 6.00 Build 0)  -->
<svg version="1.1" id="Layer_1" xmlns="http://www.w3.org/2000/svg" xmlns:xlink="http://www.w3.org/1999/xlink" x="0px" y="0px"
	 viewBox="0 0 512 512" style="enable-background:new 0 0 512 512;" xml:space="preserve">
<circle style="fill:#88C5CC;" cx="256" cy="256" r="256"/>
<path style="fill:#BF7230;" d="M294.96,178.056c0-4.608,0-20.108,0-20.108s21.992-11.312,31.624-25.552
	c9.636-14.244,11.204-25.972,4.5-33.932c-6.7-7.96-24.56,5.028-27.492,15.5c-5.44-10.892-17.588-17.96-24.712-17.96
	c-10.468,0-18.32,11.676-22.924,21.732c-4.608-10.056-14.544-21.732-25.016-21.732c-7.12,0-17.264,7.072-22.712,17.96
	c-2.932-10.472-20.94-23.46-27.644-15.5s-5.852,19.688,3.784,33.932s30.592,25.552,30.592,25.552s0,15.5,0,20.108
	c-24,7.824-53.212,32.256-53.212,50.268s-6.5,127.352-6.5,147.46c0,20.104,24.508,40.216,37.072,40.216c12.568,0,47.48,0,63.676,0
	s51.108,0,63.676,0s36.864-20.108,36.864-40.22c0-20.104-7.328-129.44-7.328-147.456C349.212,210.312,318.96,185.876,294.96,178.056
	z"/>
<g>
	<path style="fill:#995B27;" d="M253.908,129.356c0-3.772,0.72-8.436,2.092-11.624c-3.72-10.42-15.504-22.048-25.036-21.732
		c-1.512,0.048-3.256,0.304-5.084,0.792C240.776,98.952,253.488,118.36,253.908,129.356z"/>
	<path style="fill:#995B27;" d="M302.708,124.956c-0.576-4.136,0.16-8.168,1.052-10.996c-5.084-11.1-18.088-18.276-24.796-17.96
		c-1.712,0.084-3.368,0.296-4.968,0.792C290.172,97.468,300.196,115.532,302.708,124.956z"/>
	<path style="fill:#995B27;" d="M348.58,228.324c0-18.012-30.88-42.448-54.88-50.268c0-4.608,0-20.108,0-20.108
		s22.62-11.312,32.252-25.552c9.64-14.244,11.524-25.972,4.82-33.932c-2.592-3.08-6.572-3-11.024-1.164
		c0.46,0.328,1.056,0.704,1.444,1.164c6.7,7.96,5.288,19.688-4.344,33.932s-31.152,25.552-31.152,25.552s0,15.5,0,20.108
		c24,7.824,53.852,32.256,53.852,50.268s6.82,127.352,6.82,147.456c0,20.108-24.18,40.22-36.752,40.22c4.032,0,7.516,0,10.06,0
		c12.568,0,36.24-20.108,36.24-40.22C355.916,355.676,348.58,246.336,348.58,228.324z"/>
	<path style="fill:#995B27;" d="M204.424,123.332c0.784-3.716,1.824-6.632,3.824-9.436c-4.66-12.556-19.272-21.3-26.36-16.6
		C190.86,98.512,202.432,114.588,204.424,123.332z"/>
</g>
<g>
	<path style="fill:#FFD464;" d="M302.96,176h-96c-3.704,0-8-4.296-8-8c0-3.7,4.296-8,8-8h96c3.704,0,8,4.3,8,8
		C310.96,171.704,306.668,176,302.96,176z"/>
	<path style="fill:#FFD464;" d="M255.9,360c-30.88,0-56-25.12-56-56s25.12-56,56-56c30.884,0,56,25.12,56,56S286.78,360,255.9,360z
		 M255.9,264c-22.056,0-40,17.944-40,40s17.944,40,40,40s40-17.944,40-40S277.952,264,255.9,264z"/>
	<path style="fill:#FFD464;" d="M253.664,320.852v-13.796c-4.304-1.232-7.46-3.084-9.468-5.584
		c-2.008-2.492-3.012-5.516-3.012-9.076c0-3.596,1.136-6.624,3.408-9.076c2.272-2.448,5.296-3.856,9.072-4.232v-3.26h4.772v3.26
		c3.492,0.416,6.268,1.604,8.336,3.572c2.064,1.964,3.376,4.592,3.948,7.892l-8.332,1.084c-0.504-2.584-1.824-4.348-3.952-5.268
		v12.88c5.268,1.42,8.86,3.272,10.768,5.548s2.864,5.184,2.864,8.744c0,3.976-1.2,7.324-3.6,10.048
		c-2.408,2.72-5.752,4.392-10.032,5v6.164h-4.772v-5.992c-3.8-0.46-6.884-1.88-9.252-4.252s-3.888-5.72-4.544-10.044l8.596-0.92
		c0.352,1.756,1.008,3.272,1.976,4.544C251.4,319.36,252.476,320.28,253.664,320.852z M253.664,286.272
		c-1.296,0.444-2.328,1.188-3.096,2.244c-0.768,1.056-1.152,2.22-1.152,3.492c0,1.164,0.352,2.252,1.052,3.244
		c0.704,1,1.768,1.812,3.196,2.42L253.664,286.272L253.664,286.272z M258.436,321.316c1.648-0.308,2.984-1.076,4.016-2.288
		s1.552-2.652,1.552-4.292c0-1.476-0.432-2.744-1.3-3.804c-0.868-1.068-2.288-1.888-4.264-2.452v12.836H258.436z"/>
</g>
<g>
</g>
<g>
</g>
<g>
</g>
<g>
</g>
<g>
</g>
<g>
</g>
<g>
</g>
<g>
</g>
<g>
</g>
<g>
</g>
<g>
</g>
<g>
</g>
<g>
</g>
<g>
</g>
<g>
</g>
</svg>
